<?xml version="1.0" standalone="no"?>
<!DOCTYPE svg PUBLIC "-//W3C//DTD SVG 20010904//EN"
 "http://www.w3.org/TR/2001/REC-SVG-20010904/DTD/svg10.dtd">
<svg version="1.0" xmlns="http://www.w3.org/2000/svg"
 width="700.000000pt" height="700.000000pt" viewBox="0 0 700.000000 700.000000"
 preserveAspectRatio="xMidYMid meet">
<metadata>
Created by potrace 1.11, written by Peter Selinger 2001-2013
</metadata>
<g transform="translate(0.000000,700.000000) scale(0.100000,-0.100000)"
fill="#000000" stroke="none">
<path d="M749 6996 c-2 -2 -24 -6 -49 -9 -121 -14 -292 -94 -403 -187 -142
-119 -255 -314 -284 -490 -10 -58 -10 -5550 -1 -5610 46 -283 237 -521 509
-636 43 -18 79 -32 79 -29 0 2 15 -1 33 -6 17 -6 46 -13 62 -17 40 -9 5558 -9
5610 0 180 31 371 140 490 279 98 115 151 224 186 379 18 82 19 169 16 2855
-2 1524 -5 2777 -8 2785 -3 8 -9 29 -13 45 -85 340 -355 586 -696 635 -53 8
-5523 14 -5531 6z"/>
</g>
</svg>
